<svg width="21" height="18" viewBox="0 0 21 18" fill="none" xmlns="http://www.w3.org/2000/svg">
<g clip-path="url(#clip0_3397_3768)">
<path d="M4.125 1.12511C7.33219 -0.478135 9.96875 1.46886 11 2.84386C12.0313 1.46886 14.6678 -0.478135 17.875 1.12511C22 3.18761 20.9688 8.34386 17.875 11.4376C16.3653 12.9474 13.7067 15.6059 11.7624 17.0847C11.5453 17.2497 11.2788 17.3367 11.0061 17.3316C10.7334 17.3264 10.4704 17.2296 10.2596 17.0566C8.47688 15.6176 5.61344 12.9261 4.125 11.4376C1.03125 8.34386 1.66893e-06 3.18761 4.125 1.12511Z" fill="#F8312F"/>
<path d="M11 2.84383V4.94071C11.8731 3.09477 14.0422 0.630082 17.6399 1.01302C14.5393 -0.382605 12.0058 1.50252 11 2.84383ZM8.21288 0.80677C7.05375 0.403208 5.65469 0.359895 4.125 1.12508C1.66893e-06 3.18758 1.03125 8.34383 4.125 11.4376C5.61344 12.926 8.47688 15.6176 10.2596 17.0565C10.4705 17.2294 10.7335 17.3262 11.0062 17.3312C11.2789 17.3362 11.5453 17.2491 11.7624 17.084C11.9371 16.9511 12.117 16.8095 12.3021 16.6591C10.34 15.1858 7.58588 12.8648 6.09056 11.529C2.68263 8.48271 1.54619 3.40621 6.09056 1.37533C6.7617 1.06977 7.47887 0.877646 8.21288 0.80677Z" fill="#CA0B4A"/>
<path d="M14.4973 8.50493C15.4298 9.04334 16.9216 8.20535 17.8293 6.63323C18.737 5.06112 18.7168 3.3502 17.7842 2.81179C16.8517 2.27338 15.3599 3.11137 14.4522 4.68349C13.5446 6.2556 13.5647 7.96652 14.4973 8.50493Z" fill="#F37366"/>
</g>
<defs>
<clipPath id="clip0_3397_3768">
<rect width="21" height="18" fill="white"/>
</clipPath>
</defs>
</svg>
